<svg xmlns="http://www.w3.org/2000/svg" width="1270" height="760" viewBox="0 0 1270 760" font-family="-apple-system, BlinkMacSystemFont, 'Segoe UI', Helvetica, Arial, sans-serif">
  <defs>
    <radialGradient id="iris" cx="50%" cy="50%" r="58%">
      <stop offset="0" stop-color="#eafff4"/>
      <stop offset="0.32" stop-color="#39ff9a"/>
      <stop offset="0.72" stop-color="#0bbf67"/>
      <stop offset="1" stop-color="#06351f"/>
    </radialGradient>
    <linearGradient id="bg4" x1="0" y1="0" x2="0" y2="1">
      <stop offset="0" stop-color="#161a18"/>
      <stop offset="1" stop-color="#101312"/>
    </linearGradient>
  </defs>

  <rect x="0" y="0" width="1270" height="760" fill="url(#bg4)"/>
  <rect x="0.5" y="0.5" width="1269" height="759" fill="none" stroke="#2c302c"/>

  <!-- wordmark -->
  <g transform="translate(64,52) scale(0.42)">
    <path d="M9 49c9-15 22-23 39-23s30 8 39 23c-9 14-22 21-39 21S18 63 9 49Z" fill="#06130d" stroke="#39ff9a" stroke-width="3"/>
    <circle cx="48" cy="48" r="16" fill="url(#iris)"/>
    <circle cx="48" cy="48" r="6" fill="#020405"/>
    <path d="M24 47c7-7 15-10 24-10s17 3 24 10" stroke="#eafff4" stroke-width="2" stroke-linecap="round" opacity=".72"/>
  </g>
  <text x="118" y="82" font-size="26" font-weight="700" letter-spacing="3" fill="#edefe9">KAGE</text>
  <rect x="1046" y="56" width="160" height="34" rx="17" fill="rgba(176,149,232,0.12)" stroke="#b095e8"/>
  <text x="1126" y="78" text-anchor="middle" font-size="14" font-weight="600" letter-spacing="0.5" fill="#b095e8">SHARED VIA GIT</text>

  <!-- headline -->
  <text x="64" y="212" font-family="Georgia, 'Times New Roman', serif" font-size="56" font-weight="700" fill="#edefe9">What one teammate learns,</text>
  <text x="64" y="276" font-family="Georgia, 'Times New Roman', serif" font-size="56" font-weight="700" fill="#5fdca0">every agent knows.</text>
  <text x="64" y="328" font-size="21" fill="#a4aba1">Memory is plain JSON committed to your repo and reviewed in the same PR as the code.</text>
  <text x="64" y="356" font-size="21" fill="#a4aba1">Push once — your teammates' next agent session starts already knowing it.</text>

  <!-- flow panel -->
  <rect x="64" y="396" width="1142" height="232" rx="18" fill="#1a1d1b" stroke="#2c302c"/>

  <!-- LEFT: one agent learns -->
  <text x="104" y="440" font-size="13" font-weight="600" letter-spacing="1.2" fill="#767d74">ONE AGENT LEARNS IT</text>
  <rect x="104" y="456" width="286" height="120" rx="12" fill="#1a1320" stroke="#b095e8" stroke-width="1.5"/>
  <rect x="104" y="456" width="4" height="120" rx="2" fill="#b095e8"/>
  <text x="128" y="492" font-size="15" fill="#edefe9">"retry uses exponential</text>
  <text x="128" y="514" font-size="15" fill="#edefe9">backoff — don't lower the cap"</text>
  <text x="128" y="552" font-size="13" fill="#a4aba1">decision · src/retry.ts</text>

  <!-- arrow to git -->
  <line x1="390" y1="516" x2="470" y2="516" stroke="#41463f" stroke-width="2"/>
  <path d="M470 516 l-10 -5 v10 z" fill="#41463f"/>

  <!-- MIDDLE: git -->
  <g stroke="#6fb4e8" stroke-width="2" fill="#0e1110">
    <line x1="528" y1="466" x2="528" y2="566"/>
    <circle cx="528" cy="476" r="7"/>
    <circle cx="528" cy="516" r="7"/>
    <circle cx="528" cy="556" r="7"/>
  </g>
  <text x="556" y="500" font-size="14" font-weight="600" fill="#6fb4e8">git</text>
  <text x="556" y="540" font-size="13" fill="#a4aba1">committed ·</text>
  <text x="556" y="558" font-size="13" fill="#a4aba1">PR-reviewed</text>

  <!-- arrows fan out -->
  <g stroke="#41463f" stroke-width="2" fill="none">
    <path d="M624 516 C 660 516, 660 480, 700 480"/>
    <path d="M624 516 L 700 516"/>
    <path d="M624 516 C 660 516, 660 552, 700 552"/>
  </g>

  <!-- RIGHT: every teammate's agent recalls it -->
  <text x="700" y="440" font-size="13" font-weight="600" letter-spacing="1.2" fill="#767d74">EVERY TEAMMATE'S AGENT RECALLS IT</text>
  <g>
    <!-- row 1 -->
    <circle cx="716" cy="480" r="9" fill="#1a1320" stroke="#b095e8" stroke-width="1.5"/>
    <text x="742" y="485" font-size="16" fill="#edefe9">Aanya's agent</text>
    <text x="1166" y="485" text-anchor="end" font-size="14" font-weight="600" fill="#5fdca0">✓ recalled</text>
    <!-- row 2 -->
    <circle cx="716" cy="516" r="9" fill="#1a1320" stroke="#b095e8" stroke-width="1.5"/>
    <text x="742" y="521" font-size="16" fill="#edefe9">Diego's agent</text>
    <text x="1166" y="521" text-anchor="end" font-size="14" font-weight="600" fill="#5fdca0">✓ recalled</text>
    <!-- row 3 -->
    <circle cx="716" cy="552" r="9" fill="#1a1320" stroke="#b095e8" stroke-width="1.5"/>
    <text x="742" y="557" font-size="16" fill="#edefe9">the new hire's agent</text>
    <text x="1166" y="557" text-anchor="end" font-size="14" font-weight="600" fill="#5fdca0">✓ recalled</text>
  </g>

  <!-- footer -->
  <line x1="64" y1="676" x2="1206" y2="676" stroke="#2c302c"/>
  <text x="64" y="712" font-size="16" font-weight="600" fill="#43c98a">kage-core.com</text>
  <text x="1206" y="712" text-anchor="end" font-size="16" fill="#767d74">No cloud, no account — your knowledge stays in your repo</text>
</svg>
