<svg xmlns="http://www.w3.org/2000/svg" width="1270" height="760" viewBox="0 0 1270 760" font-family="-apple-system, BlinkMacSystemFont, 'Segoe UI', Helvetica, Arial, sans-serif">
  <defs>
    <radialGradient id="iris" cx="50%" cy="50%" r="58%">
      <stop offset="0" stop-color="#eafff4"/>
      <stop offset="0.32" stop-color="#39ff9a"/>
      <stop offset="0.72" stop-color="#0bbf67"/>
      <stop offset="1" stop-color="#06351f"/>
    </radialGradient>
    <linearGradient id="paper" x1="0" y1="0" x2="0.6" y2="1">
      <stop offset="0" stop-color="#f7f6f0"/>
      <stop offset="1" stop-color="#eceee6"/>
    </linearGradient>
    <radialGradient id="glow" cx="85%" cy="12%" r="55%">
      <stop offset="0" stop-color="#43c98a" stop-opacity="0.20"/>
      <stop offset="1" stop-color="#43c98a" stop-opacity="0"/>
    </radialGradient>
  </defs>

  <rect x="0" y="0" width="1270" height="760" fill="url(#paper)"/>
  <rect x="0" y="0" width="1270" height="760" fill="url(#glow)"/>
  <rect x="0.5" y="0.5" width="1269" height="759" fill="none" stroke="#dcded3"/>

  <g transform="translate(64,52) scale(0.42)">
    <path d="M9 49c9-15 22-23 39-23s30 8 39 23c-9 14-22 21-39 21S18 63 9 49Z" fill="#06130d" stroke="#0bbf67" stroke-width="3"/>
    <circle cx="48" cy="48" r="16" fill="url(#iris)"/>
    <circle cx="48" cy="48" r="6" fill="#020405"/>
    <path d="M24 47c7-7 15-10 24-10s17 3 24 10" stroke="#eafff4" stroke-width="2" stroke-linecap="round" opacity=".72"/>
  </g>
  <text x="118" y="82" font-size="26" font-weight="800" letter-spacing="3" fill="#16201b">KAGE</text>
  <rect x="1046" y="56" width="160" height="34" rx="17" fill="#ffffff" stroke="#d3d5c9"/>
  <text x="1126" y="78" text-anchor="middle" font-size="14" letter-spacing="0.5" fill="#5c655e">HOW IT WORKS</text>

  <text x="64" y="232" font-size="54" font-weight="800" letter-spacing="-1" fill="#16201b">Ambient memory, end to end</text>
  <text x="64" y="282" font-size="21" fill="#5c655e">Once installed it just runs — your agents capture, verify, recall, and stay honest as the code moves.</text>

  <!-- step cards (light) -->
  <g>
    <rect x="64" y="350" width="267" height="250" rx="16" fill="#ffffff" stroke="#dfe0d6"/>
    <rect x="64" y="350" width="267" height="5" rx="2.5" fill="#0e9c57"/>
    <text x="92" y="412" font-size="40" font-weight="800" fill="#0e9c57">1</text>
    <text x="92" y="454" font-size="22" font-weight="700" fill="#16201b">Capture</text>
    <text x="92" y="494" font-size="15" fill="#5c655e">As your agent works,</text>
    <text x="92" y="516" font-size="15" fill="#5c655e">durable learnings become</text>
    <text x="92" y="538" font-size="15" fill="#5c655e">memory packets — plain</text>
    <text x="92" y="560" font-size="15" fill="#5c655e">JSON in your repo.</text>
  </g>
  <g>
    <rect x="355" y="350" width="267" height="250" rx="16" fill="#ffffff" stroke="#dfe0d6"/>
    <rect x="355" y="350" width="267" height="5" rx="2.5" fill="#2f6fb0"/>
    <text x="383" y="412" font-size="40" font-weight="800" fill="#2f6fb0">2</text>
    <text x="383" y="454" font-size="22" font-weight="700" fill="#16201b">Verify</text>
    <text x="383" y="494" font-size="15" fill="#5c655e">Every packet must cite real</text>
    <text x="383" y="516" font-size="15" fill="#5c655e">code. Hallucinated citations</text>
    <text x="383" y="538" font-size="15" fill="#5c655e">are rejected on write —</text>
    <text x="383" y="560" font-size="15" fill="#5c655e">they never enter storage.</text>
  </g>
  <g>
    <rect x="646" y="350" width="267" height="250" rx="16" fill="#ffffff" stroke="#dfe0d6"/>
    <rect x="646" y="350" width="267" height="5" rx="2.5" fill="#7c54c9"/>
    <text x="674" y="412" font-size="40" font-weight="800" fill="#7c54c9">3</text>
    <text x="674" y="454" font-size="22" font-weight="700" fill="#16201b">Recall</text>
    <text x="674" y="494" font-size="15" fill="#5c655e">The next session — yours or</text>
    <text x="674" y="516" font-size="15" fill="#5c655e">a teammate's — starts</text>
    <text x="674" y="538" font-size="15" fill="#5c655e">already knowing it, shared</text>
    <text x="674" y="560" font-size="15" fill="#5c655e">through git.</text>
  </g>
  <g>
    <rect x="937" y="350" width="269" height="250" rx="16" fill="#ffffff" stroke="#dfe0d6"/>
    <rect x="937" y="350" width="269" height="5" rx="2.5" fill="#b9851f"/>
    <text x="965" y="412" font-size="40" font-weight="800" fill="#b9851f">4</text>
    <text x="965" y="454" font-size="22" font-weight="700" fill="#16201b">Stay true</text>
    <text x="965" y="494" font-size="15" fill="#5c655e">When a diff changes cited</text>
    <text x="965" y="516" font-size="15" fill="#5c655e">code, that memory is</text>
    <text x="965" y="538" font-size="15" fill="#5c655e">withheld and flagged —</text>
    <text x="965" y="560" font-size="15" fill="#5c655e">before the PR.</text>
  </g>

  <g fill="#9aa094">
    <text x="343" y="482" text-anchor="middle" font-size="24">›</text>
    <text x="634" y="482" text-anchor="middle" font-size="24">›</text>
    <text x="925" y="482" text-anchor="middle" font-size="24">›</text>
  </g>

  <line x1="64" y1="676" x2="1206" y2="676" stroke="#dcded3"/>
  <text x="64" y="712" font-size="16" font-weight="700" fill="#0e9c57">kage-core.com</text>
  <text x="1206" y="712" text-anchor="end" font-size="16" fill="#8a9189">npx -y @kage-core/kage-graph-mcp install</text>
</svg>
