<svg xmlns="http://www.w3.org/2000/svg" width="1022" height="374" viewBox="0 0 1022 374">
  <defs>
    <linearGradient id="g" gradientUnits="userSpaceOnUse" x1="0" y1="70" x2="0" y2="304">
      <stop offset="0" stop-color="#e9fff5"/>
      <stop offset="0.34" stop-color="#5dffa6"/>
      <stop offset="0.7" stop-color="#15b06a"/>
      <stop offset="1" stop-color="#0a5e38"/>
    </linearGradient>
    <radialGradient id="glow" cx="50%" cy="18%" r="72%">
      <stop offset="0" stop-color="#1f7a4e" stop-opacity="0.5"/>
      <stop offset="1" stop-color="#1f7a4e" stop-opacity="0"/>
    </radialGradient>
  </defs>
  <rect x="0" y="0" width="1022" height="374" rx="12" fill="#0c100e"/>
  <rect x="0" y="0" width="1022" height="374" rx="12" fill="url(#glow)"/>
  <rect x="6" y="6" width="1010" height="362" rx="9" fill="none" stroke="#1c241f" stroke-width="1.5"/>
  <rect x="103" y="63" width="180" height="248" rx="4" fill="none" stroke="#41ff8f" stroke-width="1.5" opacity="0.11"/><rect x="96" y="56" width="194" height="262" rx="4" fill="none" stroke="#41ff8f" stroke-width="1.5" opacity="0.06"/><rect x="315" y="63" width="180" height="248" rx="4" fill="none" stroke="#41ff8f" stroke-width="1.5" opacity="0.11"/><rect x="308" y="56" width="194" height="262" rx="4" fill="none" stroke="#41ff8f" stroke-width="1.5" opacity="0.06"/><rect x="527" y="63" width="180" height="248" rx="4" fill="none" stroke="#41ff8f" stroke-width="1.5" opacity="0.11"/><rect x="520" y="56" width="194" height="262" rx="4" fill="none" stroke="#41ff8f" stroke-width="1.5" opacity="0.06"/><rect x="739" y="63" width="180" height="248" rx="4" fill="none" stroke="#41ff8f" stroke-width="1.5" opacity="0.11"/><rect x="732" y="56" width="194" height="262" rx="4" fill="none" stroke="#41ff8f" stroke-width="1.5" opacity="0.06"/>
  <rect x="110" y="70" width="30" height="30" rx="2" fill="url(#g)"/><rect x="246" y="70" width="30" height="30" rx="2" fill="url(#g)"/><rect x="110" y="104" width="30" height="30" rx="2" fill="url(#g)"/><rect x="212" y="104" width="30" height="30" rx="2" fill="url(#g)"/><rect x="110" y="138" width="30" height="30" rx="2" fill="url(#g)"/><rect x="178" y="138" width="30" height="30" rx="2" fill="url(#g)"/><rect x="110" y="172" width="30" height="30" rx="2" fill="url(#g)"/><rect x="144" y="172" width="30" height="30" rx="2" fill="url(#g)"/><rect x="110" y="206" width="30" height="30" rx="2" fill="url(#g)"/><rect x="178" y="206" width="30" height="30" rx="2" fill="url(#g)"/><rect x="110" y="240" width="30" height="30" rx="2" fill="url(#g)"/><rect x="212" y="240" width="30" height="30" rx="2" fill="url(#g)"/><rect x="110" y="274" width="30" height="30" rx="2" fill="url(#g)"/><rect x="246" y="274" width="30" height="30" rx="2" fill="url(#g)"/><rect x="356" y="70" width="30" height="30" rx="2" fill="url(#g)"/><rect x="390" y="70" width="30" height="30" rx="2" fill="url(#g)"/><rect x="424" y="70" width="30" height="30" rx="2" fill="url(#g)"/><rect x="322" y="104" width="30" height="30" rx="2" fill="url(#g)"/><rect x="458" y="104" width="30" height="30" rx="2" fill="url(#g)"/><rect x="322" y="138" width="30" height="30" rx="2" fill="url(#g)"/><rect x="458" y="138" width="30" height="30" rx="2" fill="url(#g)"/><rect x="322" y="172" width="30" height="30" rx="2" fill="url(#g)"/><rect x="356" y="172" width="30" height="30" rx="2" fill="url(#g)"/><rect x="390" y="172" width="30" height="30" rx="2" fill="url(#g)"/><rect x="424" y="172" width="30" height="30" rx="2" fill="url(#g)"/><rect x="458" y="172" width="30" height="30" rx="2" fill="url(#g)"/><rect x="322" y="206" width="30" height="30" rx="2" fill="url(#g)"/><rect x="458" y="206" width="30" height="30" rx="2" fill="url(#g)"/><rect x="322" y="240" width="30" height="30" rx="2" fill="url(#g)"/><rect x="458" y="240" width="30" height="30" rx="2" fill="url(#g)"/><rect x="322" y="274" width="30" height="30" rx="2" fill="url(#g)"/><rect x="458" y="274" width="30" height="30" rx="2" fill="url(#g)"/><rect x="568" y="70" width="30" height="30" rx="2" fill="url(#g)"/><rect x="602" y="70" width="30" height="30" rx="2" fill="url(#g)"/><rect x="636" y="70" width="30" height="30" rx="2" fill="url(#g)"/><rect x="670" y="70" width="30" height="30" rx="2" fill="url(#g)"/><rect x="534" y="104" width="30" height="30" rx="2" fill="url(#g)"/><rect x="534" y="138" width="30" height="30" rx="2" fill="url(#g)"/><rect x="534" y="172" width="30" height="30" rx="2" fill="url(#g)"/><rect x="636" y="172" width="30" height="30" rx="2" fill="url(#g)"/><rect x="670" y="172" width="30" height="30" rx="2" fill="url(#g)"/><rect x="534" y="206" width="30" height="30" rx="2" fill="url(#g)"/><rect x="670" y="206" width="30" height="30" rx="2" fill="url(#g)"/><rect x="534" y="240" width="30" height="30" rx="2" fill="url(#g)"/><rect x="670" y="240" width="30" height="30" rx="2" fill="url(#g)"/><rect x="568" y="274" width="30" height="30" rx="2" fill="url(#g)"/><rect x="602" y="274" width="30" height="30" rx="2" fill="url(#g)"/><rect x="636" y="274" width="30" height="30" rx="2" fill="url(#g)"/><rect x="670" y="274" width="30" height="30" rx="2" fill="url(#g)"/><rect x="746" y="70" width="30" height="30" rx="2" fill="url(#g)"/><rect x="780" y="70" width="30" height="30" rx="2" fill="url(#g)"/><rect x="814" y="70" width="30" height="30" rx="2" fill="url(#g)"/><rect x="848" y="70" width="30" height="30" rx="2" fill="url(#g)"/><rect x="882" y="70" width="30" height="30" rx="2" fill="url(#g)"/><rect x="746" y="104" width="30" height="30" rx="2" fill="url(#g)"/><rect x="746" y="138" width="30" height="30" rx="2" fill="url(#g)"/><rect x="746" y="172" width="30" height="30" rx="2" fill="url(#g)"/><rect x="780" y="172" width="30" height="30" rx="2" fill="url(#g)"/><rect x="814" y="172" width="30" height="30" rx="2" fill="url(#g)"/><rect x="848" y="172" width="30" height="30" rx="2" fill="url(#g)"/><rect x="746" y="206" width="30" height="30" rx="2" fill="url(#g)"/><rect x="746" y="240" width="30" height="30" rx="2" fill="url(#g)"/><rect x="746" y="274" width="30" height="30" rx="2" fill="url(#g)"/><rect x="780" y="274" width="30" height="30" rx="2" fill="url(#g)"/><rect x="814" y="274" width="30" height="30" rx="2" fill="url(#g)"/><rect x="848" y="274" width="30" height="30" rx="2" fill="url(#g)"/><rect x="882" y="274" width="30" height="30" rx="2" fill="url(#g)"/>
</svg>
