<svg width="1280" height="760" viewBox="0 0 1280 760" fill="none" xmlns="http://www.w3.org/2000/svg" role="img" aria-label="Kage repo hive memory demo" overflow="hidden">
  <defs>
    <linearGradient id="shell" x1="0" y1="0" x2="1280" y2="760" gradientUnits="userSpaceOnUse">
      <stop stop-color="#071720"/>
      <stop offset="0.52" stop-color="#03080b"/>
      <stop offset="1" stop-color="#03170d"/>
    </linearGradient>
    <linearGradient id="panel" x1="0" y1="0" x2="1" y2="1">
      <stop stop-color="#0a1d27"/>
      <stop offset="1" stop-color="#05090c"/>
    </linearGradient>
    <filter id="glow" x="-30%" y="-30%" width="160%" height="160%">
      <feGaussianBlur stdDeviation="3" result="blur"/>
      <feMerge>
        <feMergeNode in="blur"/>
        <feMergeNode in="SourceGraphic"/>
      </feMerge>
    </filter>
  </defs>

  <rect width="1280" height="760" fill="url(#shell)"/>
  <rect x="24" y="24" width="330" height="644" fill="#071018" stroke="#26394a"/>
  <rect x="372" y="24" width="804" height="644" fill="#071018" stroke="#26394a"/>

  <g font-family="ui-monospace, SFMono-Regular, Menlo, monospace">
    <rect x="46" y="56" width="36" height="36" fill="#062f1b" stroke="#20ff86"/>
    <text x="59" y="82" fill="#20ff86" font-size="22" font-weight="800">K</text>
    <text x="88" y="67" fill="#ddffe8" font-size="24" font-weight="800">Kage memory</text>
    <text x="88" y="91" fill="#8ea7b5" font-size="13">Hive context for coding agents.</text>

    <g font-size="16">
      <rect x="46" y="130" width="286" height="46" fill="#062b1b" stroke="#20ff86"/>
      <rect x="56" y="142" width="24" height="24" fill="#101c25" stroke="#304657"/>
      <text x="64" y="160" fill="#c8ffdc">1</text>
      <text x="92" y="160" fill="#ddffe8" font-weight="700">Codex installs Kage</text>

      <rect x="46" y="186" width="286" height="46" fill="#09141c" stroke="#26394a"/>
      <rect x="56" y="198" width="24" height="24" fill="#101c25" stroke="#304657"/>
      <text x="64" y="216" fill="#8ea7b5">2</text>
      <text x="92" y="216" fill="#8ea7b5" font-weight="700">Repo graph builds</text>

      <rect x="46" y="242" width="286" height="46" fill="#09141c" stroke="#26394a"/>
      <rect x="56" y="254" width="24" height="24" fill="#101c25" stroke="#304657"/>
      <text x="64" y="272" fill="#8ea7b5">3</text>
      <text x="92" y="272" fill="#8ea7b5" font-weight="700">Memory ships in git</text>

      <rect x="46" y="298" width="286" height="46" fill="#09141c" stroke="#26394a"/>
      <rect x="56" y="310" width="24" height="24" fill="#101c25" stroke="#304657"/>
      <text x="64" y="328" fill="#8ea7b5">4</text>
      <text x="92" y="328" fill="#8ea7b5" font-weight="700">Claude recalls context</text>
    </g>

    <g>
      <rect x="46" y="382" width="138" height="72" fill="#071018" stroke="#26394a"/>
      <text x="58" y="416" fill="#20ff86" font-size="24" font-weight="900">64</text>
      <text x="58" y="438" fill="#8ea7b5" font-size="12">tests passing</text>

      <rect x="194" y="382" width="138" height="72" fill="#071018" stroke="#26394a"/>
      <text x="206" y="416" fill="#20ff86" font-size="24" font-weight="900">13</text>
      <text x="206" y="438" fill="#8ea7b5" font-size="12">agents</text>

      <rect x="46" y="464" width="138" height="72" fill="#071018" stroke="#26394a"/>
      <text x="58" y="498" fill="#20ff86" font-size="24" font-weight="900">0</text>
      <text x="58" y="520" fill="#8ea7b5" font-size="12">external DB</text>

      <rect x="194" y="464" width="138" height="72" fill="#071018" stroke="#26394a"/>
      <text x="206" y="498" fill="#20ff86" font-size="24" font-weight="900">MCP</text>
      <text x="206" y="520" fill="#8ea7b5" font-size="12">ready</text>
    </g>

    <rect x="46" y="570" width="286" height="52" fill="#061c13" stroke="#20ff86"/>
    <text x="62" y="602" fill="#20ff86" font-size="17" font-weight="800">kage-core.github.io/Kage</text>

    <rect x="372" y="24" width="804" height="44" fill="#0a141b" stroke="#26394a"/>
    <circle cx="394" cy="46" r="5" fill="#ff6b6b"/>
    <circle cx="412" cy="46" r="5" fill="#ffd166"/>
    <circle cx="430" cy="46" r="5" fill="#20ff86"/>
    <text x="902" y="53" fill="#ddffe8" font-size="16" font-weight="700">Repo memory terminal</text>

    <rect x="392" y="88" width="410" height="560" fill="url(#panel)" stroke="#26394a"/>
    <text x="410" y="122" fill="#20ff86" font-size="16" font-weight="800">you &gt;</text>
    <text x="462" y="122" fill="#ddffe8" font-size="16">How do I run this repo?</text>

    <text x="410" y="170" fill="#20ff86" font-size="16" font-weight="800">kage &gt;</text>
    <text x="482" y="170" fill="#ddffe8" font-size="16" font-weight="700">recalling repo memory...</text>
    <text x="410" y="206" fill="#41c9ff" font-size="16">✓ Runbook: npm test --prefix mcp</text>
    <text x="410" y="238" fill="#41c9ff" font-size="16">✓ Code graph: 1,898 symbols</text>
    <text x="410" y="270" fill="#41c9ff" font-size="16">✓ Decisions: viewer + memory policy</text>
    <text x="410" y="302" fill="#41c9ff" font-size="16">✓ Context block ready for the agent</text>

    <rect x="410" y="346" width="354" height="138" fill="#071018" stroke="#26394a"/>
    <text x="430" y="378" fill="#8ea7b5" font-size="13" font-weight="800">AGENT CONTEXT</text>
    <text x="430" y="412" fill="#ddffe8" font-size="15">Use repo-local packets first.</text>
    <text x="430" y="442" fill="#ddffe8" font-size="15">Cite source files and decisions.</text>
    <text x="430" y="472" fill="#ddffe8" font-size="15">Learn durable fixes back to git.</text>

    <rect x="410" y="522" width="160" height="42" fill="#062b1b" stroke="#20ff86"/>
    <text x="434" y="549" fill="#20ff86" font-size="15" font-weight="800">APPROVED</text>
    <rect x="588" y="522" width="176" height="42" fill="#071625" stroke="#41c9ff"/>
    <text x="612" y="549" fill="#41c9ff" font-size="15" font-weight="800">LOCAL FIRST</text>

    <rect x="820" y="88" width="336" height="270" fill="url(#panel)" stroke="#26394a"/>
    <text x="838" y="118" fill="#8ea7b5" font-size="14" font-weight="800">MEMORY + CODE GRAPH</text>
    <g stroke="#26394a" stroke-width="2">
      <path d="M990 176L900 240"/>
      <path d="M990 176L1082 240"/>
      <path d="M900 240L990 300"/>
      <path d="M1082 240L990 300"/>
    </g>
    <rect x="940" y="138" width="104" height="38" fill="#062b1b" stroke="#20ff86"/>
    <text x="978" y="162" fill="#20ff86" font-size="13" font-weight="800">repo</text>
    <rect x="850" y="218" width="104" height="38" fill="#071625" stroke="#41c9ff"/>
    <text x="870" y="242" fill="#41c9ff" font-size="13" font-weight="800">code graph</text>
    <rect x="1032" y="218" width="104" height="38" fill="#1a1005" stroke="#ff9f1c"/>
    <text x="1058" y="242" fill="#ff9f1c" font-size="13" font-weight="800">memory</text>
    <rect x="940" y="298" width="104" height="38" fill="#111326" stroke="#a78bfa"/>
    <text x="956" y="322" fill="#c4b5fd" font-size="13" font-weight="800">team recall</text>

    <rect x="820" y="376" width="336" height="272" fill="url(#panel)" stroke="#26394a"/>
    <text x="838" y="408" fill="#8ea7b5" font-size="14" font-weight="800">REVIEW QUEUE</text>
    <rect x="838" y="424" width="300" height="72" fill="#16110a" stroke="#ff9f1c"/>
    <text x="852" y="448" fill="#ffb15c" font-size="14" font-weight="800">No pending memory.</text>
    <text x="852" y="474" fill="#8ea7b5" font-size="12">repo-local writes are git visible</text>

    <rect x="838" y="526" width="300" height="74" fill="#071018" stroke="#26394a"/>
    <text x="852" y="552" fill="#20ff86" font-size="14" font-weight="800">Codex learns today.</text>
    <text x="852" y="578" fill="#ddffe8" font-size="14">Claude Code recalls tomorrow.</text>
  </g>

  <g opacity="0.28" stroke="#20ff86" filter="url(#glow)">
    <path d="M1088 692C1148 644 1192 638 1230 656"/>
    <path d="M1122 708C1178 678 1210 678 1260 700"/>
  </g>
</svg>
