<svg xmlns="http://www.w3.org/2000/svg" width="1200" height="630" viewBox="0 0 680 358" role="img" aria-labelledby="ogtitle">
<title id="ogtitle">Kage, built on Google's Open Knowledge Format</title>
<defs><radialGradient id="kiris" cx="50%" cy="50%" r="58%"><stop offset="0" stop-color="#eafff4"/><stop offset="0.32" stop-color="#39ff9a"/><stop offset="0.72" stop-color="#0bbf67"/><stop offset="1" stop-color="#06351f"/></radialGradient></defs>
<rect x="0" y="0" width="680" height="358" fill="#0d120f"/>
<rect x="0" y="0" width="680" height="4" fill="#41ff8f"/>
<g transform="translate(40,26) scale(0.3125)">
<path d="M9 49c9-15 22-23 39-23s30 8 39 23c-9 14-22 21-39 21S18 63 9 49Z" fill="#06130d" stroke="#39ff9a" stroke-width="3"/>
<circle cx="48" cy="48" r="16" fill="url(#kiris)"/>
<circle cx="48" cy="48" r="6" fill="#020405"/>
<path d="M24 47c7-7 15-10 24-10s17 3 24 10" stroke="#eafff4" stroke-width="2" stroke-linecap="round" opacity=".72"/>
</g>
<text x="80" y="49" fill="#f3f6f2" font-family="Inter, Arial, sans-serif" font-size="23" font-weight="600">Kage</text>
<g transform="translate(456,30)">
<path d="M22.56 12.25c0-.78-.07-1.53-.2-2.25H12v4.26h5.92c-.26 1.37-1.04 2.53-2.21 3.31v2.77h3.57c2.08-1.92 3.28-4.74 3.28-8.09z" fill="#4285F4"/>
<path d="M12 23c2.97 0 5.46-.98 7.28-2.66l-3.57-2.77c-.98.66-2.23 1.06-3.71 1.06-2.86 0-5.29-1.93-6.16-4.53H2.18v2.84C3.99 20.53 7.7 23 12 23z" fill="#34A853"/>
<path d="M5.84 14.09c-.22-.66-.35-1.36-.35-2.09s.13-1.43.35-2.09V7.07H2.18C1.43 8.55 1 10.22 1 12s.43 3.45 1.18 4.93l2.85-2.22.81-.62z" fill="#FBBC05"/>
<path d="M12 5.38c1.62 0 3.06.56 4.21 1.64l3.15-3.15C17.45 2.09 14.97 1 12 1 7.7 1 3.99 3.47 2.18 7.07l3.66 2.84c.87-2.6 3.3-4.53 6.16-4.53z" fill="#EA4335"/>
</g>
<text x="486" y="47" fill="#93a297" font-family="Inter, Arial, sans-serif" font-size="14" font-weight="500">Open Knowledge Format</text>
<text x="44" y="184" fill="#f3f6f2" font-family="Georgia, 'Times New Roman', serif" font-size="46" font-weight="600">Verified memory,</text>
<text x="44" y="238" font-family="Georgia, 'Times New Roman', serif" font-size="46" font-weight="600"><tspan fill="#f3f6f2">on Google's </tspan><tspan fill="#41ff8f">OKF.</tspan></text>
<text x="44" y="278" fill="#93a297" font-family="Inter, Arial, sans-serif" font-size="16.5">Checked against your real code. Deterministic, no LLM.</text>
<line x1="44" y1="306" x2="636" y2="306" stroke="#222b24" stroke-width="1"/>
<text x="44" y="334" fill="#41ff8f" font-family="Inter, Arial, sans-serif" font-size="16" font-weight="600">kage-core.com</text>
<text x="636" y="334" text-anchor="end" fill="#7f8f82" font-family="Inter, Arial, sans-serif" font-size="13">no account · in your repo</text>
</svg>
