<svg xmlns="http://www.w3.org/2000/svg" width="1270" height="760" viewBox="0 0 1270 760" font-family="-apple-system, BlinkMacSystemFont, 'Segoe UI', Helvetica, Arial, sans-serif">
  <defs>
    <radialGradient id="iris" cx="50%" cy="50%" r="58%">
      <stop offset="0" stop-color="#eafff4"/>
      <stop offset="0.32" stop-color="#39ff9a"/>
      <stop offset="0.72" stop-color="#0bbf67"/>
      <stop offset="1" stop-color="#06351f"/>
    </radialGradient>
    <linearGradient id="bg2" x1="0" y1="0" x2="0" y2="1">
      <stop offset="0" stop-color="#161a18"/>
      <stop offset="1" stop-color="#101312"/>
    </linearGradient>
  </defs>

  <rect x="0" y="0" width="1270" height="760" fill="url(#bg2)"/>
  <rect x="0.5" y="0.5" width="1269" height="759" fill="none" stroke="#2c302c"/>

  <!-- wordmark -->
  <g transform="translate(64,52) scale(0.42)">
    <path d="M9 49c9-15 22-23 39-23s30 8 39 23c-9 14-22 21-39 21S18 63 9 49Z" fill="#06130d" stroke="#39ff9a" stroke-width="3"/>
    <circle cx="48" cy="48" r="16" fill="url(#iris)"/>
    <circle cx="48" cy="48" r="6" fill="#020405"/>
    <path d="M24 47c7-7 15-10 24-10s17 3 24 10" stroke="#eafff4" stroke-width="2" stroke-linecap="round" opacity=".72"/>
  </g>
  <text x="118" y="82" font-size="26" font-weight="700" letter-spacing="3" fill="#edefe9">KAGE</text>
  <rect x="1040" y="56" width="166" height="34" rx="17" fill="rgba(67,201,138,0.12)" stroke="#43c98a"/>
  <text x="1123" y="78" text-anchor="middle" font-size="14" font-weight="600" letter-spacing="0.5" fill="#5fdca0">MEMORY TRUST</text>

  <!-- headline -->
  <text x="64" y="212" font-family="Georgia, 'Times New Roman', serif" font-size="56" font-weight="700" fill="#edefe9">Memory that proves</text>
  <text x="64" y="276" font-family="Georgia, 'Times New Roman', serif" font-size="56" font-weight="700" fill="#5fdca0">it's still true.</text>
  <text x="64" y="328" font-size="21" fill="#a4aba1">Most memory tools remember everything and verify nothing. Kage checks every</text>
  <text x="64" y="356" font-size="21" fill="#a4aba1">memory against your real code — at write, at recall, and at diff time.</text>

  <!-- trust panel -->
  <rect x="64" y="396" width="1142" height="232" rx="18" fill="#1a1d1b" stroke="#2c302c"/>

  <!-- left: score -->
  <text x="120" y="452" font-size="14" font-weight="600" letter-spacing="1.5" fill="#a4aba1">TRUST SCORE</text>
  <text x="116" y="546" font-family="Georgia, 'Times New Roman', serif" font-size="104" font-weight="700" fill="#5fdca0">99</text>
  <text x="250" y="546" font-size="30" fill="#767d74">/ 100</text>
  <text x="120" y="586" font-size="15" fill="#a4aba1">Agents recall only memory</text>
  <text x="120" y="608" font-size="15" fill="#a4aba1">grounded in current code.</text>
  <line x1="400" y1="430" x2="400" y2="594" stroke="#2c302c"/>

  <!-- right: bars -->
  <g>
    <text x="450" y="456" font-size="17" fill="#edefe9">Hallucinated citations rejected</text>
    <text x="1158" y="456" text-anchor="end" font-size="17" font-weight="700" fill="#5fdca0">100%</text>
    <rect x="450" y="466" width="708" height="8" rx="4" fill="#0e1110"/>
    <rect x="450" y="466" width="708" height="8" rx="4" fill="#43c98a"/>

    <text x="450" y="514" font-size="17" fill="#edefe9">Stale memory withheld on recall</text>
    <text x="1158" y="514" text-anchor="end" font-size="17" font-weight="700" fill="#5fdca0">100%</text>
    <rect x="450" y="524" width="708" height="8" rx="4" fill="#0e1110"/>
    <rect x="450" y="524" width="708" height="8" rx="4" fill="#43c98a"/>

    <text x="450" y="572" font-size="17" fill="#edefe9">Live memory grounded to code</text>
    <text x="1158" y="572" text-anchor="end" font-size="17" font-weight="700" fill="#5fdca0">98%</text>
    <rect x="450" y="582" width="708" height="8" rx="4" fill="#0e1110"/>
    <rect x="450" y="582" width="694" height="8" rx="4" fill="#43c98a"/>
  </g>

  <!-- footer -->
  <line x1="64" y1="676" x2="1206" y2="676" stroke="#2c302c"/>
  <text x="64" y="712" font-size="16" font-weight="600" fill="#43c98a">kage-core.com</text>
  <text x="1206" y="712" text-anchor="end" font-size="16" fill="#767d74">Run it yourself: kage benchmark --trust</text>
</svg>
