<svg xmlns="http://www.w3.org/2000/svg" width="900" height="326" viewBox="0 0 900 326">
  <rect width="900" height="326" rx="12" fill="#080b09"/>
  <rect x="6" y="6" width="888" height="314" rx="9" fill="none" stroke="#15321f" stroke-width="1.5"/>
  <rect x="99" y="55" width="36" height="36" rx="5" fill="#41ff8f" opacity="0.16"/><rect x="102" y="58" width="30" height="30" rx="3" fill="#41ff8f" opacity="0.28"/><rect x="104" y="60" width="26" height="26" rx="2" fill="#7dffb8"/><rect x="219" y="55" width="36" height="36" rx="5" fill="#41ff8f" opacity="0.16"/><rect x="222" y="58" width="30" height="30" rx="3" fill="#41ff8f" opacity="0.28"/><rect x="224" y="60" width="26" height="26" rx="2" fill="#7dffb8"/><rect x="99" y="85" width="36" height="36" rx="5" fill="#41ff8f" opacity="0.16"/><rect x="102" y="88" width="30" height="30" rx="3" fill="#41ff8f" opacity="0.28"/><rect x="104" y="90" width="26" height="26" rx="2" fill="#7dffb8"/><rect x="189" y="85" width="36" height="36" rx="5" fill="#41ff8f" opacity="0.16"/><rect x="192" y="88" width="30" height="30" rx="3" fill="#41ff8f" opacity="0.28"/><rect x="194" y="90" width="26" height="26" rx="2" fill="#7dffb8"/><rect x="99" y="115" width="36" height="36" rx="5" fill="#41ff8f" opacity="0.16"/><rect x="102" y="118" width="30" height="30" rx="3" fill="#41ff8f" opacity="0.28"/><rect x="104" y="120" width="26" height="26" rx="2" fill="#7dffb8"/><rect x="159" y="115" width="36" height="36" rx="5" fill="#41ff8f" opacity="0.16"/><rect x="162" y="118" width="30" height="30" rx="3" fill="#41ff8f" opacity="0.28"/><rect x="164" y="120" width="26" height="26" rx="2" fill="#7dffb8"/><rect x="99" y="145" width="36" height="36" rx="5" fill="#41ff8f" opacity="0.16"/><rect x="102" y="148" width="30" height="30" rx="3" fill="#41ff8f" opacity="0.28"/><rect x="104" y="150" width="26" height="26" rx="2" fill="#7dffb8"/><rect x="129" y="145" width="36" height="36" rx="5" fill="#41ff8f" opacity="0.16"/><rect x="132" y="148" width="30" height="30" rx="3" fill="#41ff8f" opacity="0.28"/><rect x="134" y="150" width="26" height="26" rx="2" fill="#7dffb8"/><rect x="99" y="175" width="36" height="36" rx="5" fill="#41ff8f" opacity="0.16"/><rect x="102" y="178" width="30" height="30" rx="3" fill="#41ff8f" opacity="0.28"/><rect x="104" y="180" width="26" height="26" rx="2" fill="#7dffb8"/><rect x="159" y="175" width="36" height="36" rx="5" fill="#41ff8f" opacity="0.16"/><rect x="162" y="178" width="30" height="30" rx="3" fill="#41ff8f" opacity="0.28"/><rect x="164" y="180" width="26" height="26" rx="2" fill="#7dffb8"/><rect x="99" y="205" width="36" height="36" rx="5" fill="#41ff8f" opacity="0.16"/><rect x="102" y="208" width="30" height="30" rx="3" fill="#41ff8f" opacity="0.28"/><rect x="104" y="210" width="26" height="26" rx="2" fill="#7dffb8"/><rect x="189" y="205" width="36" height="36" rx="5" fill="#41ff8f" opacity="0.16"/><rect x="192" y="208" width="30" height="30" rx="3" fill="#41ff8f" opacity="0.28"/><rect x="194" y="210" width="26" height="26" rx="2" fill="#7dffb8"/><rect x="99" y="235" width="36" height="36" rx="5" fill="#41ff8f" opacity="0.16"/><rect x="102" y="238" width="30" height="30" rx="3" fill="#41ff8f" opacity="0.28"/><rect x="104" y="240" width="26" height="26" rx="2" fill="#7dffb8"/><rect x="219" y="235" width="36" height="36" rx="5" fill="#41ff8f" opacity="0.16"/><rect x="222" y="238" width="30" height="30" rx="3" fill="#41ff8f" opacity="0.28"/><rect x="224" y="240" width="26" height="26" rx="2" fill="#7dffb8"/><rect x="311" y="55" width="36" height="36" rx="5" fill="#41ff8f" opacity="0.16"/><rect x="314" y="58" width="30" height="30" rx="3" fill="#41ff8f" opacity="0.28"/><rect x="316" y="60" width="26" height="26" rx="2" fill="#7dffb8"/><rect x="341" y="55" width="36" height="36" rx="5" fill="#41ff8f" opacity="0.16"/><rect x="344" y="58" width="30" height="30" rx="3" fill="#41ff8f" opacity="0.28"/><rect x="346" y="60" width="26" height="26" rx="2" fill="#7dffb8"/><rect x="371" y="55" width="36" height="36" rx="5" fill="#41ff8f" opacity="0.16"/><rect x="374" y="58" width="30" height="30" rx="3" fill="#41ff8f" opacity="0.28"/><rect x="376" y="60" width="26" height="26" rx="2" fill="#7dffb8"/><rect x="281" y="85" width="36" height="36" rx="5" fill="#41ff8f" opacity="0.16"/><rect x="284" y="88" width="30" height="30" rx="3" fill="#41ff8f" opacity="0.28"/><rect x="286" y="90" width="26" height="26" rx="2" fill="#7dffb8"/><rect x="401" y="85" width="36" height="36" rx="5" fill="#41ff8f" opacity="0.16"/><rect x="404" y="88" width="30" height="30" rx="3" fill="#41ff8f" opacity="0.28"/><rect x="406" y="90" width="26" height="26" rx="2" fill="#7dffb8"/><rect x="281" y="115" width="36" height="36" rx="5" fill="#41ff8f" opacity="0.16"/><rect x="284" y="118" width="30" height="30" rx="3" fill="#41ff8f" opacity="0.28"/><rect x="286" y="120" width="26" height="26" rx="2" fill="#7dffb8"/><rect x="401" y="115" width="36" height="36" rx="5" fill="#41ff8f" opacity="0.16"/><rect x="404" y="118" width="30" height="30" rx="3" fill="#41ff8f" opacity="0.28"/><rect x="406" y="120" width="26" height="26" rx="2" fill="#7dffb8"/><rect x="281" y="145" width="36" height="36" rx="5" fill="#41ff8f" opacity="0.16"/><rect x="284" y="148" width="30" height="30" rx="3" fill="#41ff8f" opacity="0.28"/><rect x="286" y="150" width="26" height="26" rx="2" fill="#7dffb8"/><rect x="311" y="145" width="36" height="36" rx="5" fill="#41ff8f" opacity="0.16"/><rect x="314" y="148" width="30" height="30" rx="3" fill="#41ff8f" opacity="0.28"/><rect x="316" y="150" width="26" height="26" rx="2" fill="#7dffb8"/><rect x="341" y="145" width="36" height="36" rx="5" fill="#41ff8f" opacity="0.16"/><rect x="344" y="148" width="30" height="30" rx="3" fill="#41ff8f" opacity="0.28"/><rect x="346" y="150" width="26" height="26" rx="2" fill="#7dffb8"/><rect x="371" y="145" width="36" height="36" rx="5" fill="#41ff8f" opacity="0.16"/><rect x="374" y="148" width="30" height="30" rx="3" fill="#41ff8f" opacity="0.28"/><rect x="376" y="150" width="26" height="26" rx="2" fill="#7dffb8"/><rect x="401" y="145" width="36" height="36" rx="5" fill="#41ff8f" opacity="0.16"/><rect x="404" y="148" width="30" height="30" rx="3" fill="#41ff8f" opacity="0.28"/><rect x="406" y="150" width="26" height="26" rx="2" fill="#7dffb8"/><rect x="281" y="175" width="36" height="36" rx="5" fill="#41ff8f" opacity="0.16"/><rect x="284" y="178" width="30" height="30" rx="3" fill="#41ff8f" opacity="0.28"/><rect x="286" y="180" width="26" height="26" rx="2" fill="#7dffb8"/><rect x="401" y="175" width="36" height="36" rx="5" fill="#41ff8f" opacity="0.16"/><rect x="404" y="178" width="30" height="30" rx="3" fill="#41ff8f" opacity="0.28"/><rect x="406" y="180" width="26" height="26" rx="2" fill="#7dffb8"/><rect x="281" y="205" width="36" height="36" rx="5" fill="#41ff8f" opacity="0.16"/><rect x="284" y="208" width="30" height="30" rx="3" fill="#41ff8f" opacity="0.28"/><rect x="286" y="210" width="26" height="26" rx="2" fill="#7dffb8"/><rect x="401" y="205" width="36" height="36" rx="5" fill="#41ff8f" opacity="0.16"/><rect x="404" y="208" width="30" height="30" rx="3" fill="#41ff8f" opacity="0.28"/><rect x="406" y="210" width="26" height="26" rx="2" fill="#7dffb8"/><rect x="281" y="235" width="36" height="36" rx="5" fill="#41ff8f" opacity="0.16"/><rect x="284" y="238" width="30" height="30" rx="3" fill="#41ff8f" opacity="0.28"/><rect x="286" y="240" width="26" height="26" rx="2" fill="#7dffb8"/><rect x="401" y="235" width="36" height="36" rx="5" fill="#41ff8f" opacity="0.16"/><rect x="404" y="238" width="30" height="30" rx="3" fill="#41ff8f" opacity="0.28"/><rect x="406" y="240" width="26" height="26" rx="2" fill="#7dffb8"/><rect x="493" y="55" width="36" height="36" rx="5" fill="#41ff8f" opacity="0.16"/><rect x="496" y="58" width="30" height="30" rx="3" fill="#41ff8f" opacity="0.28"/><rect x="498" y="60" width="26" height="26" rx="2" fill="#7dffb8"/><rect x="523" y="55" width="36" height="36" rx="5" fill="#41ff8f" opacity="0.16"/><rect x="526" y="58" width="30" height="30" rx="3" fill="#41ff8f" opacity="0.28"/><rect x="528" y="60" width="26" height="26" rx="2" fill="#7dffb8"/><rect x="553" y="55" width="36" height="36" rx="5" fill="#41ff8f" opacity="0.16"/><rect x="556" y="58" width="30" height="30" rx="3" fill="#41ff8f" opacity="0.28"/><rect x="558" y="60" width="26" height="26" rx="2" fill="#7dffb8"/><rect x="583" y="55" width="36" height="36" rx="5" fill="#41ff8f" opacity="0.16"/><rect x="586" y="58" width="30" height="30" rx="3" fill="#41ff8f" opacity="0.28"/><rect x="588" y="60" width="26" height="26" rx="2" fill="#7dffb8"/><rect x="463" y="85" width="36" height="36" rx="5" fill="#41ff8f" opacity="0.16"/><rect x="466" y="88" width="30" height="30" rx="3" fill="#41ff8f" opacity="0.28"/><rect x="468" y="90" width="26" height="26" rx="2" fill="#7dffb8"/><rect x="463" y="115" width="36" height="36" rx="5" fill="#41ff8f" opacity="0.16"/><rect x="466" y="118" width="30" height="30" rx="3" fill="#41ff8f" opacity="0.28"/><rect x="468" y="120" width="26" height="26" rx="2" fill="#7dffb8"/><rect x="463" y="145" width="36" height="36" rx="5" fill="#41ff8f" opacity="0.16"/><rect x="466" y="148" width="30" height="30" rx="3" fill="#41ff8f" opacity="0.28"/><rect x="468" y="150" width="26" height="26" rx="2" fill="#7dffb8"/><rect x="553" y="145" width="36" height="36" rx="5" fill="#41ff8f" opacity="0.16"/><rect x="556" y="148" width="30" height="30" rx="3" fill="#41ff8f" opacity="0.28"/><rect x="558" y="150" width="26" height="26" rx="2" fill="#7dffb8"/><rect x="583" y="145" width="36" height="36" rx="5" fill="#41ff8f" opacity="0.16"/><rect x="586" y="148" width="30" height="30" rx="3" fill="#41ff8f" opacity="0.28"/><rect x="588" y="150" width="26" height="26" rx="2" fill="#7dffb8"/><rect x="463" y="175" width="36" height="36" rx="5" fill="#41ff8f" opacity="0.16"/><rect x="466" y="178" width="30" height="30" rx="3" fill="#41ff8f" opacity="0.28"/><rect x="468" y="180" width="26" height="26" rx="2" fill="#7dffb8"/><rect x="583" y="175" width="36" height="36" rx="5" fill="#41ff8f" opacity="0.16"/><rect x="586" y="178" width="30" height="30" rx="3" fill="#41ff8f" opacity="0.28"/><rect x="588" y="180" width="26" height="26" rx="2" fill="#7dffb8"/><rect x="463" y="205" width="36" height="36" rx="5" fill="#41ff8f" opacity="0.16"/><rect x="466" y="208" width="30" height="30" rx="3" fill="#41ff8f" opacity="0.28"/><rect x="468" y="210" width="26" height="26" rx="2" fill="#7dffb8"/><rect x="583" y="205" width="36" height="36" rx="5" fill="#41ff8f" opacity="0.16"/><rect x="586" y="208" width="30" height="30" rx="3" fill="#41ff8f" opacity="0.28"/><rect x="588" y="210" width="26" height="26" rx="2" fill="#7dffb8"/><rect x="493" y="235" width="36" height="36" rx="5" fill="#41ff8f" opacity="0.16"/><rect x="496" y="238" width="30" height="30" rx="3" fill="#41ff8f" opacity="0.28"/><rect x="498" y="240" width="26" height="26" rx="2" fill="#7dffb8"/><rect x="523" y="235" width="36" height="36" rx="5" fill="#41ff8f" opacity="0.16"/><rect x="526" y="238" width="30" height="30" rx="3" fill="#41ff8f" opacity="0.28"/><rect x="528" y="240" width="26" height="26" rx="2" fill="#7dffb8"/><rect x="553" y="235" width="36" height="36" rx="5" fill="#41ff8f" opacity="0.16"/><rect x="556" y="238" width="30" height="30" rx="3" fill="#41ff8f" opacity="0.28"/><rect x="558" y="240" width="26" height="26" rx="2" fill="#7dffb8"/><rect x="583" y="235" width="36" height="36" rx="5" fill="#41ff8f" opacity="0.16"/><rect x="586" y="238" width="30" height="30" rx="3" fill="#41ff8f" opacity="0.28"/><rect x="588" y="240" width="26" height="26" rx="2" fill="#7dffb8"/><rect x="645" y="55" width="36" height="36" rx="5" fill="#41ff8f" opacity="0.16"/><rect x="648" y="58" width="30" height="30" rx="3" fill="#41ff8f" opacity="0.28"/><rect x="650" y="60" width="26" height="26" rx="2" fill="#7dffb8"/><rect x="675" y="55" width="36" height="36" rx="5" fill="#41ff8f" opacity="0.16"/><rect x="678" y="58" width="30" height="30" rx="3" fill="#41ff8f" opacity="0.28"/><rect x="680" y="60" width="26" height="26" rx="2" fill="#7dffb8"/><rect x="705" y="55" width="36" height="36" rx="5" fill="#41ff8f" opacity="0.16"/><rect x="708" y="58" width="30" height="30" rx="3" fill="#41ff8f" opacity="0.28"/><rect x="710" y="60" width="26" height="26" rx="2" fill="#7dffb8"/><rect x="735" y="55" width="36" height="36" rx="5" fill="#41ff8f" opacity="0.16"/><rect x="738" y="58" width="30" height="30" rx="3" fill="#41ff8f" opacity="0.28"/><rect x="740" y="60" width="26" height="26" rx="2" fill="#7dffb8"/><rect x="765" y="55" width="36" height="36" rx="5" fill="#41ff8f" opacity="0.16"/><rect x="768" y="58" width="30" height="30" rx="3" fill="#41ff8f" opacity="0.28"/><rect x="770" y="60" width="26" height="26" rx="2" fill="#7dffb8"/><rect x="645" y="85" width="36" height="36" rx="5" fill="#41ff8f" opacity="0.16"/><rect x="648" y="88" width="30" height="30" rx="3" fill="#41ff8f" opacity="0.28"/><rect x="650" y="90" width="26" height="26" rx="2" fill="#7dffb8"/><rect x="645" y="115" width="36" height="36" rx="5" fill="#41ff8f" opacity="0.16"/><rect x="648" y="118" width="30" height="30" rx="3" fill="#41ff8f" opacity="0.28"/><rect x="650" y="120" width="26" height="26" rx="2" fill="#7dffb8"/><rect x="645" y="145" width="36" height="36" rx="5" fill="#41ff8f" opacity="0.16"/><rect x="648" y="148" width="30" height="30" rx="3" fill="#41ff8f" opacity="0.28"/><rect x="650" y="150" width="26" height="26" rx="2" fill="#7dffb8"/><rect x="675" y="145" width="36" height="36" rx="5" fill="#41ff8f" opacity="0.16"/><rect x="678" y="148" width="30" height="30" rx="3" fill="#41ff8f" opacity="0.28"/><rect x="680" y="150" width="26" height="26" rx="2" fill="#7dffb8"/><rect x="705" y="145" width="36" height="36" rx="5" fill="#41ff8f" opacity="0.16"/><rect x="708" y="148" width="30" height="30" rx="3" fill="#41ff8f" opacity="0.28"/><rect x="710" y="150" width="26" height="26" rx="2" fill="#7dffb8"/><rect x="735" y="145" width="36" height="36" rx="5" fill="#41ff8f" opacity="0.16"/><rect x="738" y="148" width="30" height="30" rx="3" fill="#41ff8f" opacity="0.28"/><rect x="740" y="150" width="26" height="26" rx="2" fill="#7dffb8"/><rect x="645" y="175" width="36" height="36" rx="5" fill="#41ff8f" opacity="0.16"/><rect x="648" y="178" width="30" height="30" rx="3" fill="#41ff8f" opacity="0.28"/><rect x="650" y="180" width="26" height="26" rx="2" fill="#7dffb8"/><rect x="645" y="205" width="36" height="36" rx="5" fill="#41ff8f" opacity="0.16"/><rect x="648" y="208" width="30" height="30" rx="3" fill="#41ff8f" opacity="0.28"/><rect x="650" y="210" width="26" height="26" rx="2" fill="#7dffb8"/><rect x="645" y="235" width="36" height="36" rx="5" fill="#41ff8f" opacity="0.16"/><rect x="648" y="238" width="30" height="30" rx="3" fill="#41ff8f" opacity="0.28"/><rect x="650" y="240" width="26" height="26" rx="2" fill="#7dffb8"/><rect x="675" y="235" width="36" height="36" rx="5" fill="#41ff8f" opacity="0.16"/><rect x="678" y="238" width="30" height="30" rx="3" fill="#41ff8f" opacity="0.28"/><rect x="680" y="240" width="26" height="26" rx="2" fill="#7dffb8"/><rect x="705" y="235" width="36" height="36" rx="5" fill="#41ff8f" opacity="0.16"/><rect x="708" y="238" width="30" height="30" rx="3" fill="#41ff8f" opacity="0.28"/><rect x="710" y="240" width="26" height="26" rx="2" fill="#7dffb8"/><rect x="735" y="235" width="36" height="36" rx="5" fill="#41ff8f" opacity="0.16"/><rect x="738" y="238" width="30" height="30" rx="3" fill="#41ff8f" opacity="0.28"/><rect x="740" y="240" width="26" height="26" rx="2" fill="#7dffb8"/><rect x="765" y="235" width="36" height="36" rx="5" fill="#41ff8f" opacity="0.16"/><rect x="768" y="238" width="30" height="30" rx="3" fill="#41ff8f" opacity="0.28"/><rect x="770" y="240" width="26" height="26" rx="2" fill="#7dffb8"/>
</svg>
