<svg xmlns="http://www.w3.org/2000/svg" width="1200" height="300" viewBox="0 0 1200 300">
  <defs>
    <radialGradient id="amb" cx="50.0%" cy="50.0%" r="55%">
      <stop offset="0" stop-color="#2bb06e" stop-opacity="0.34"/>
      <stop offset="1" stop-color="#2bb06e" stop-opacity="0"/>
    </radialGradient>
  </defs>
  <rect width="1200" height="300" rx="12" fill="#070a08"/>
  <rect width="1200" height="300" rx="12" fill="url(#amb)"/>
  <rect x="6" y="6" width="1188" height="288" rx="9" fill="none" stroke="#15321f" stroke-width="1.5"/>
  <rect x="259" y="38" width="44" height="44" rx="7" fill="#41ff8f" opacity="0.10"/><rect x="263" y="42" width="36" height="36" rx="5" fill="#54ff9b" opacity="0.22"/><rect x="266" y="45" width="30" height="30" rx="3" fill="#7dffb8" opacity="0.42"/><rect x="268" y="47" width="26" height="26" rx="2" fill="#9bffca"/><rect x="379" y="38" width="44" height="44" rx="7" fill="#41ff8f" opacity="0.10"/><rect x="383" y="42" width="36" height="36" rx="5" fill="#54ff9b" opacity="0.22"/><rect x="386" y="45" width="30" height="30" rx="3" fill="#7dffb8" opacity="0.42"/><rect x="388" y="47" width="26" height="26" rx="2" fill="#9bffca"/><rect x="259" y="68" width="44" height="44" rx="7" fill="#41ff8f" opacity="0.10"/><rect x="263" y="72" width="36" height="36" rx="5" fill="#54ff9b" opacity="0.22"/><rect x="266" y="75" width="30" height="30" rx="3" fill="#7dffb8" opacity="0.42"/><rect x="268" y="77" width="26" height="26" rx="2" fill="#9bffca"/><rect x="349" y="68" width="44" height="44" rx="7" fill="#41ff8f" opacity="0.10"/><rect x="353" y="72" width="36" height="36" rx="5" fill="#54ff9b" opacity="0.22"/><rect x="356" y="75" width="30" height="30" rx="3" fill="#7dffb8" opacity="0.42"/><rect x="358" y="77" width="26" height="26" rx="2" fill="#9bffca"/><rect x="259" y="98" width="44" height="44" rx="7" fill="#41ff8f" opacity="0.10"/><rect x="263" y="102" width="36" height="36" rx="5" fill="#54ff9b" opacity="0.22"/><rect x="266" y="105" width="30" height="30" rx="3" fill="#7dffb8" opacity="0.42"/><rect x="268" y="107" width="26" height="26" rx="2" fill="#9bffca"/><rect x="319" y="98" width="44" height="44" rx="7" fill="#41ff8f" opacity="0.10"/><rect x="323" y="102" width="36" height="36" rx="5" fill="#54ff9b" opacity="0.22"/><rect x="326" y="105" width="30" height="30" rx="3" fill="#7dffb8" opacity="0.42"/><rect x="328" y="107" width="26" height="26" rx="2" fill="#9bffca"/><rect x="259" y="128" width="44" height="44" rx="7" fill="#41ff8f" opacity="0.10"/><rect x="263" y="132" width="36" height="36" rx="5" fill="#54ff9b" opacity="0.22"/><rect x="266" y="135" width="30" height="30" rx="3" fill="#7dffb8" opacity="0.42"/><rect x="268" y="137" width="26" height="26" rx="2" fill="#9bffca"/><rect x="289" y="128" width="44" height="44" rx="7" fill="#41ff8f" opacity="0.10"/><rect x="293" y="132" width="36" height="36" rx="5" fill="#54ff9b" opacity="0.22"/><rect x="296" y="135" width="30" height="30" rx="3" fill="#7dffb8" opacity="0.42"/><rect x="298" y="137" width="26" height="26" rx="2" fill="#9bffca"/><rect x="259" y="158" width="44" height="44" rx="7" fill="#41ff8f" opacity="0.10"/><rect x="263" y="162" width="36" height="36" rx="5" fill="#54ff9b" opacity="0.22"/><rect x="266" y="165" width="30" height="30" rx="3" fill="#7dffb8" opacity="0.42"/><rect x="268" y="167" width="26" height="26" rx="2" fill="#9bffca"/><rect x="319" y="158" width="44" height="44" rx="7" fill="#41ff8f" opacity="0.10"/><rect x="323" y="162" width="36" height="36" rx="5" fill="#54ff9b" opacity="0.22"/><rect x="326" y="165" width="30" height="30" rx="3" fill="#7dffb8" opacity="0.42"/><rect x="328" y="167" width="26" height="26" rx="2" fill="#9bffca"/><rect x="259" y="188" width="44" height="44" rx="7" fill="#41ff8f" opacity="0.10"/><rect x="263" y="192" width="36" height="36" rx="5" fill="#54ff9b" opacity="0.22"/><rect x="266" y="195" width="30" height="30" rx="3" fill="#7dffb8" opacity="0.42"/><rect x="268" y="197" width="26" height="26" rx="2" fill="#9bffca"/><rect x="349" y="188" width="44" height="44" rx="7" fill="#41ff8f" opacity="0.10"/><rect x="353" y="192" width="36" height="36" rx="5" fill="#54ff9b" opacity="0.22"/><rect x="356" y="195" width="30" height="30" rx="3" fill="#7dffb8" opacity="0.42"/><rect x="358" y="197" width="26" height="26" rx="2" fill="#9bffca"/><rect x="259" y="218" width="44" height="44" rx="7" fill="#41ff8f" opacity="0.10"/><rect x="263" y="222" width="36" height="36" rx="5" fill="#54ff9b" opacity="0.22"/><rect x="266" y="225" width="30" height="30" rx="3" fill="#7dffb8" opacity="0.42"/><rect x="268" y="227" width="26" height="26" rx="2" fill="#9bffca"/><rect x="379" y="218" width="44" height="44" rx="7" fill="#41ff8f" opacity="0.10"/><rect x="383" y="222" width="36" height="36" rx="5" fill="#54ff9b" opacity="0.22"/><rect x="386" y="225" width="30" height="30" rx="3" fill="#7dffb8" opacity="0.42"/><rect x="388" y="227" width="26" height="26" rx="2" fill="#9bffca"/><rect x="462" y="38" width="44" height="44" rx="7" fill="#41ff8f" opacity="0.10"/><rect x="466" y="42" width="36" height="36" rx="5" fill="#54ff9b" opacity="0.22"/><rect x="469" y="45" width="30" height="30" rx="3" fill="#7dffb8" opacity="0.42"/><rect x="471" y="47" width="26" height="26" rx="2" fill="#9bffca"/><rect x="492" y="38" width="44" height="44" rx="7" fill="#41ff8f" opacity="0.10"/><rect x="496" y="42" width="36" height="36" rx="5" fill="#54ff9b" opacity="0.22"/><rect x="499" y="45" width="30" height="30" rx="3" fill="#7dffb8" opacity="0.42"/><rect x="501" y="47" width="26" height="26" rx="2" fill="#9bffca"/><rect x="522" y="38" width="44" height="44" rx="7" fill="#41ff8f" opacity="0.10"/><rect x="526" y="42" width="36" height="36" rx="5" fill="#54ff9b" opacity="0.22"/><rect x="529" y="45" width="30" height="30" rx="3" fill="#7dffb8" opacity="0.42"/><rect x="531" y="47" width="26" height="26" rx="2" fill="#9bffca"/><rect x="432" y="68" width="44" height="44" rx="7" fill="#41ff8f" opacity="0.10"/><rect x="436" y="72" width="36" height="36" rx="5" fill="#54ff9b" opacity="0.22"/><rect x="439" y="75" width="30" height="30" rx="3" fill="#7dffb8" opacity="0.42"/><rect x="441" y="77" width="26" height="26" rx="2" fill="#9bffca"/><rect x="552" y="68" width="44" height="44" rx="7" fill="#41ff8f" opacity="0.10"/><rect x="556" y="72" width="36" height="36" rx="5" fill="#54ff9b" opacity="0.22"/><rect x="559" y="75" width="30" height="30" rx="3" fill="#7dffb8" opacity="0.42"/><rect x="561" y="77" width="26" height="26" rx="2" fill="#9bffca"/><rect x="432" y="98" width="44" height="44" rx="7" fill="#41ff8f" opacity="0.10"/><rect x="436" y="102" width="36" height="36" rx="5" fill="#54ff9b" opacity="0.22"/><rect x="439" y="105" width="30" height="30" rx="3" fill="#7dffb8" opacity="0.42"/><rect x="441" y="107" width="26" height="26" rx="2" fill="#9bffca"/><rect x="552" y="98" width="44" height="44" rx="7" fill="#41ff8f" opacity="0.10"/><rect x="556" y="102" width="36" height="36" rx="5" fill="#54ff9b" opacity="0.22"/><rect x="559" y="105" width="30" height="30" rx="3" fill="#7dffb8" opacity="0.42"/><rect x="561" y="107" width="26" height="26" rx="2" fill="#9bffca"/><rect x="432" y="128" width="44" height="44" rx="7" fill="#41ff8f" opacity="0.10"/><rect x="436" y="132" width="36" height="36" rx="5" fill="#54ff9b" opacity="0.22"/><rect x="439" y="135" width="30" height="30" rx="3" fill="#7dffb8" opacity="0.42"/><rect x="441" y="137" width="26" height="26" rx="2" fill="#9bffca"/><rect x="462" y="128" width="44" height="44" rx="7" fill="#41ff8f" opacity="0.10"/><rect x="466" y="132" width="36" height="36" rx="5" fill="#54ff9b" opacity="0.22"/><rect x="469" y="135" width="30" height="30" rx="3" fill="#7dffb8" opacity="0.42"/><rect x="471" y="137" width="26" height="26" rx="2" fill="#9bffca"/><rect x="492" y="128" width="44" height="44" rx="7" fill="#41ff8f" opacity="0.10"/><rect x="496" y="132" width="36" height="36" rx="5" fill="#54ff9b" opacity="0.22"/><rect x="499" y="135" width="30" height="30" rx="3" fill="#7dffb8" opacity="0.42"/><rect x="501" y="137" width="26" height="26" rx="2" fill="#9bffca"/><rect x="522" y="128" width="44" height="44" rx="7" fill="#41ff8f" opacity="0.10"/><rect x="526" y="132" width="36" height="36" rx="5" fill="#54ff9b" opacity="0.22"/><rect x="529" y="135" width="30" height="30" rx="3" fill="#7dffb8" opacity="0.42"/><rect x="531" y="137" width="26" height="26" rx="2" fill="#9bffca"/><rect x="552" y="128" width="44" height="44" rx="7" fill="#41ff8f" opacity="0.10"/><rect x="556" y="132" width="36" height="36" rx="5" fill="#54ff9b" opacity="0.22"/><rect x="559" y="135" width="30" height="30" rx="3" fill="#7dffb8" opacity="0.42"/><rect x="561" y="137" width="26" height="26" rx="2" fill="#9bffca"/><rect x="432" y="158" width="44" height="44" rx="7" fill="#41ff8f" opacity="0.10"/><rect x="436" y="162" width="36" height="36" rx="5" fill="#54ff9b" opacity="0.22"/><rect x="439" y="165" width="30" height="30" rx="3" fill="#7dffb8" opacity="0.42"/><rect x="441" y="167" width="26" height="26" rx="2" fill="#9bffca"/><rect x="552" y="158" width="44" height="44" rx="7" fill="#41ff8f" opacity="0.10"/><rect x="556" y="162" width="36" height="36" rx="5" fill="#54ff9b" opacity="0.22"/><rect x="559" y="165" width="30" height="30" rx="3" fill="#7dffb8" opacity="0.42"/><rect x="561" y="167" width="26" height="26" rx="2" fill="#9bffca"/><rect x="432" y="188" width="44" height="44" rx="7" fill="#41ff8f" opacity="0.10"/><rect x="436" y="192" width="36" height="36" rx="5" fill="#54ff9b" opacity="0.22"/><rect x="439" y="195" width="30" height="30" rx="3" fill="#7dffb8" opacity="0.42"/><rect x="441" y="197" width="26" height="26" rx="2" fill="#9bffca"/><rect x="552" y="188" width="44" height="44" rx="7" fill="#41ff8f" opacity="0.10"/><rect x="556" y="192" width="36" height="36" rx="5" fill="#54ff9b" opacity="0.22"/><rect x="559" y="195" width="30" height="30" rx="3" fill="#7dffb8" opacity="0.42"/><rect x="561" y="197" width="26" height="26" rx="2" fill="#9bffca"/><rect x="432" y="218" width="44" height="44" rx="7" fill="#41ff8f" opacity="0.10"/><rect x="436" y="222" width="36" height="36" rx="5" fill="#54ff9b" opacity="0.22"/><rect x="439" y="225" width="30" height="30" rx="3" fill="#7dffb8" opacity="0.42"/><rect x="441" y="227" width="26" height="26" rx="2" fill="#9bffca"/><rect x="552" y="218" width="44" height="44" rx="7" fill="#41ff8f" opacity="0.10"/><rect x="556" y="222" width="36" height="36" rx="5" fill="#54ff9b" opacity="0.22"/><rect x="559" y="225" width="30" height="30" rx="3" fill="#7dffb8" opacity="0.42"/><rect x="561" y="227" width="26" height="26" rx="2" fill="#9bffca"/><rect x="635" y="38" width="44" height="44" rx="7" fill="#41ff8f" opacity="0.10"/><rect x="639" y="42" width="36" height="36" rx="5" fill="#54ff9b" opacity="0.22"/><rect x="642" y="45" width="30" height="30" rx="3" fill="#7dffb8" opacity="0.42"/><rect x="644" y="47" width="26" height="26" rx="2" fill="#9bffca"/><rect x="665" y="38" width="44" height="44" rx="7" fill="#41ff8f" opacity="0.10"/><rect x="669" y="42" width="36" height="36" rx="5" fill="#54ff9b" opacity="0.22"/><rect x="672" y="45" width="30" height="30" rx="3" fill="#7dffb8" opacity="0.42"/><rect x="674" y="47" width="26" height="26" rx="2" fill="#9bffca"/><rect x="695" y="38" width="44" height="44" rx="7" fill="#41ff8f" opacity="0.10"/><rect x="699" y="42" width="36" height="36" rx="5" fill="#54ff9b" opacity="0.22"/><rect x="702" y="45" width="30" height="30" rx="3" fill="#7dffb8" opacity="0.42"/><rect x="704" y="47" width="26" height="26" rx="2" fill="#9bffca"/><rect x="725" y="38" width="44" height="44" rx="7" fill="#41ff8f" opacity="0.10"/><rect x="729" y="42" width="36" height="36" rx="5" fill="#54ff9b" opacity="0.22"/><rect x="732" y="45" width="30" height="30" rx="3" fill="#7dffb8" opacity="0.42"/><rect x="734" y="47" width="26" height="26" rx="2" fill="#9bffca"/><rect x="605" y="68" width="44" height="44" rx="7" fill="#41ff8f" opacity="0.10"/><rect x="609" y="72" width="36" height="36" rx="5" fill="#54ff9b" opacity="0.22"/><rect x="612" y="75" width="30" height="30" rx="3" fill="#7dffb8" opacity="0.42"/><rect x="614" y="77" width="26" height="26" rx="2" fill="#9bffca"/><rect x="605" y="98" width="44" height="44" rx="7" fill="#41ff8f" opacity="0.10"/><rect x="609" y="102" width="36" height="36" rx="5" fill="#54ff9b" opacity="0.22"/><rect x="612" y="105" width="30" height="30" rx="3" fill="#7dffb8" opacity="0.42"/><rect x="614" y="107" width="26" height="26" rx="2" fill="#9bffca"/><rect x="605" y="128" width="44" height="44" rx="7" fill="#41ff8f" opacity="0.10"/><rect x="609" y="132" width="36" height="36" rx="5" fill="#54ff9b" opacity="0.22"/><rect x="612" y="135" width="30" height="30" rx="3" fill="#7dffb8" opacity="0.42"/><rect x="614" y="137" width="26" height="26" rx="2" fill="#9bffca"/><rect x="695" y="128" width="44" height="44" rx="7" fill="#41ff8f" opacity="0.10"/><rect x="699" y="132" width="36" height="36" rx="5" fill="#54ff9b" opacity="0.22"/><rect x="702" y="135" width="30" height="30" rx="3" fill="#7dffb8" opacity="0.42"/><rect x="704" y="137" width="26" height="26" rx="2" fill="#9bffca"/><rect x="725" y="128" width="44" height="44" rx="7" fill="#41ff8f" opacity="0.10"/><rect x="729" y="132" width="36" height="36" rx="5" fill="#54ff9b" opacity="0.22"/><rect x="732" y="135" width="30" height="30" rx="3" fill="#7dffb8" opacity="0.42"/><rect x="734" y="137" width="26" height="26" rx="2" fill="#9bffca"/><rect x="605" y="158" width="44" height="44" rx="7" fill="#41ff8f" opacity="0.10"/><rect x="609" y="162" width="36" height="36" rx="5" fill="#54ff9b" opacity="0.22"/><rect x="612" y="165" width="30" height="30" rx="3" fill="#7dffb8" opacity="0.42"/><rect x="614" y="167" width="26" height="26" rx="2" fill="#9bffca"/><rect x="725" y="158" width="44" height="44" rx="7" fill="#41ff8f" opacity="0.10"/><rect x="729" y="162" width="36" height="36" rx="5" fill="#54ff9b" opacity="0.22"/><rect x="732" y="165" width="30" height="30" rx="3" fill="#7dffb8" opacity="0.42"/><rect x="734" y="167" width="26" height="26" rx="2" fill="#9bffca"/><rect x="605" y="188" width="44" height="44" rx="7" fill="#41ff8f" opacity="0.10"/><rect x="609" y="192" width="36" height="36" rx="5" fill="#54ff9b" opacity="0.22"/><rect x="612" y="195" width="30" height="30" rx="3" fill="#7dffb8" opacity="0.42"/><rect x="614" y="197" width="26" height="26" rx="2" fill="#9bffca"/><rect x="725" y="188" width="44" height="44" rx="7" fill="#41ff8f" opacity="0.10"/><rect x="729" y="192" width="36" height="36" rx="5" fill="#54ff9b" opacity="0.22"/><rect x="732" y="195" width="30" height="30" rx="3" fill="#7dffb8" opacity="0.42"/><rect x="734" y="197" width="26" height="26" rx="2" fill="#9bffca"/><rect x="635" y="218" width="44" height="44" rx="7" fill="#41ff8f" opacity="0.10"/><rect x="639" y="222" width="36" height="36" rx="5" fill="#54ff9b" opacity="0.22"/><rect x="642" y="225" width="30" height="30" rx="3" fill="#7dffb8" opacity="0.42"/><rect x="644" y="227" width="26" height="26" rx="2" fill="#9bffca"/><rect x="665" y="218" width="44" height="44" rx="7" fill="#41ff8f" opacity="0.10"/><rect x="669" y="222" width="36" height="36" rx="5" fill="#54ff9b" opacity="0.22"/><rect x="672" y="225" width="30" height="30" rx="3" fill="#7dffb8" opacity="0.42"/><rect x="674" y="227" width="26" height="26" rx="2" fill="#9bffca"/><rect x="695" y="218" width="44" height="44" rx="7" fill="#41ff8f" opacity="0.10"/><rect x="699" y="222" width="36" height="36" rx="5" fill="#54ff9b" opacity="0.22"/><rect x="702" y="225" width="30" height="30" rx="3" fill="#7dffb8" opacity="0.42"/><rect x="704" y="227" width="26" height="26" rx="2" fill="#9bffca"/><rect x="725" y="218" width="44" height="44" rx="7" fill="#41ff8f" opacity="0.10"/><rect x="729" y="222" width="36" height="36" rx="5" fill="#54ff9b" opacity="0.22"/><rect x="732" y="225" width="30" height="30" rx="3" fill="#7dffb8" opacity="0.42"/><rect x="734" y="227" width="26" height="26" rx="2" fill="#9bffca"/><rect x="778" y="38" width="44" height="44" rx="7" fill="#41ff8f" opacity="0.10"/><rect x="782" y="42" width="36" height="36" rx="5" fill="#54ff9b" opacity="0.22"/><rect x="785" y="45" width="30" height="30" rx="3" fill="#7dffb8" opacity="0.42"/><rect x="787" y="47" width="26" height="26" rx="2" fill="#9bffca"/><rect x="808" y="38" width="44" height="44" rx="7" fill="#41ff8f" opacity="0.10"/><rect x="812" y="42" width="36" height="36" rx="5" fill="#54ff9b" opacity="0.22"/><rect x="815" y="45" width="30" height="30" rx="3" fill="#7dffb8" opacity="0.42"/><rect x="817" y="47" width="26" height="26" rx="2" fill="#9bffca"/><rect x="838" y="38" width="44" height="44" rx="7" fill="#41ff8f" opacity="0.10"/><rect x="842" y="42" width="36" height="36" rx="5" fill="#54ff9b" opacity="0.22"/><rect x="845" y="45" width="30" height="30" rx="3" fill="#7dffb8" opacity="0.42"/><rect x="847" y="47" width="26" height="26" rx="2" fill="#9bffca"/><rect x="868" y="38" width="44" height="44" rx="7" fill="#41ff8f" opacity="0.10"/><rect x="872" y="42" width="36" height="36" rx="5" fill="#54ff9b" opacity="0.22"/><rect x="875" y="45" width="30" height="30" rx="3" fill="#7dffb8" opacity="0.42"/><rect x="877" y="47" width="26" height="26" rx="2" fill="#9bffca"/><rect x="898" y="38" width="44" height="44" rx="7" fill="#41ff8f" opacity="0.10"/><rect x="902" y="42" width="36" height="36" rx="5" fill="#54ff9b" opacity="0.22"/><rect x="905" y="45" width="30" height="30" rx="3" fill="#7dffb8" opacity="0.42"/><rect x="907" y="47" width="26" height="26" rx="2" fill="#9bffca"/><rect x="778" y="68" width="44" height="44" rx="7" fill="#41ff8f" opacity="0.10"/><rect x="782" y="72" width="36" height="36" rx="5" fill="#54ff9b" opacity="0.22"/><rect x="785" y="75" width="30" height="30" rx="3" fill="#7dffb8" opacity="0.42"/><rect x="787" y="77" width="26" height="26" rx="2" fill="#9bffca"/><rect x="778" y="98" width="44" height="44" rx="7" fill="#41ff8f" opacity="0.10"/><rect x="782" y="102" width="36" height="36" rx="5" fill="#54ff9b" opacity="0.22"/><rect x="785" y="105" width="30" height="30" rx="3" fill="#7dffb8" opacity="0.42"/><rect x="787" y="107" width="26" height="26" rx="2" fill="#9bffca"/><rect x="778" y="128" width="44" height="44" rx="7" fill="#41ff8f" opacity="0.10"/><rect x="782" y="132" width="36" height="36" rx="5" fill="#54ff9b" opacity="0.22"/><rect x="785" y="135" width="30" height="30" rx="3" fill="#7dffb8" opacity="0.42"/><rect x="787" y="137" width="26" height="26" rx="2" fill="#9bffca"/><rect x="808" y="128" width="44" height="44" rx="7" fill="#41ff8f" opacity="0.10"/><rect x="812" y="132" width="36" height="36" rx="5" fill="#54ff9b" opacity="0.22"/><rect x="815" y="135" width="30" height="30" rx="3" fill="#7dffb8" opacity="0.42"/><rect x="817" y="137" width="26" height="26" rx="2" fill="#9bffca"/><rect x="838" y="128" width="44" height="44" rx="7" fill="#41ff8f" opacity="0.10"/><rect x="842" y="132" width="36" height="36" rx="5" fill="#54ff9b" opacity="0.22"/><rect x="845" y="135" width="30" height="30" rx="3" fill="#7dffb8" opacity="0.42"/><rect x="847" y="137" width="26" height="26" rx="2" fill="#9bffca"/><rect x="868" y="128" width="44" height="44" rx="7" fill="#41ff8f" opacity="0.10"/><rect x="872" y="132" width="36" height="36" rx="5" fill="#54ff9b" opacity="0.22"/><rect x="875" y="135" width="30" height="30" rx="3" fill="#7dffb8" opacity="0.42"/><rect x="877" y="137" width="26" height="26" rx="2" fill="#9bffca"/><rect x="778" y="158" width="44" height="44" rx="7" fill="#41ff8f" opacity="0.10"/><rect x="782" y="162" width="36" height="36" rx="5" fill="#54ff9b" opacity="0.22"/><rect x="785" y="165" width="30" height="30" rx="3" fill="#7dffb8" opacity="0.42"/><rect x="787" y="167" width="26" height="26" rx="2" fill="#9bffca"/><rect x="778" y="188" width="44" height="44" rx="7" fill="#41ff8f" opacity="0.10"/><rect x="782" y="192" width="36" height="36" rx="5" fill="#54ff9b" opacity="0.22"/><rect x="785" y="195" width="30" height="30" rx="3" fill="#7dffb8" opacity="0.42"/><rect x="787" y="197" width="26" height="26" rx="2" fill="#9bffca"/><rect x="778" y="218" width="44" height="44" rx="7" fill="#41ff8f" opacity="0.10"/><rect x="782" y="222" width="36" height="36" rx="5" fill="#54ff9b" opacity="0.22"/><rect x="785" y="225" width="30" height="30" rx="3" fill="#7dffb8" opacity="0.42"/><rect x="787" y="227" width="26" height="26" rx="2" fill="#9bffca"/><rect x="808" y="218" width="44" height="44" rx="7" fill="#41ff8f" opacity="0.10"/><rect x="812" y="222" width="36" height="36" rx="5" fill="#54ff9b" opacity="0.22"/><rect x="815" y="225" width="30" height="30" rx="3" fill="#7dffb8" opacity="0.42"/><rect x="817" y="227" width="26" height="26" rx="2" fill="#9bffca"/><rect x="838" y="218" width="44" height="44" rx="7" fill="#41ff8f" opacity="0.10"/><rect x="842" y="222" width="36" height="36" rx="5" fill="#54ff9b" opacity="0.22"/><rect x="845" y="225" width="30" height="30" rx="3" fill="#7dffb8" opacity="0.42"/><rect x="847" y="227" width="26" height="26" rx="2" fill="#9bffca"/><rect x="868" y="218" width="44" height="44" rx="7" fill="#41ff8f" opacity="0.10"/><rect x="872" y="222" width="36" height="36" rx="5" fill="#54ff9b" opacity="0.22"/><rect x="875" y="225" width="30" height="30" rx="3" fill="#7dffb8" opacity="0.42"/><rect x="877" y="227" width="26" height="26" rx="2" fill="#9bffca"/><rect x="898" y="218" width="44" height="44" rx="7" fill="#41ff8f" opacity="0.10"/><rect x="902" y="222" width="36" height="36" rx="5" fill="#54ff9b" opacity="0.22"/><rect x="905" y="225" width="30" height="30" rx="3" fill="#7dffb8" opacity="0.42"/><rect x="907" y="227" width="26" height="26" rx="2" fill="#9bffca"/>
</svg>
