<svg xmlns="http://www.w3.org/2000/svg" width="1270" height="760" viewBox="0 0 1270 760" font-family="-apple-system, BlinkMacSystemFont, 'Segoe UI', Helvetica, Arial, sans-serif">
  <defs>
    <radialGradient id="iris" cx="50%" cy="50%" r="58%">
      <stop offset="0" stop-color="#eafff4"/>
      <stop offset="0.32" stop-color="#39ff9a"/>
      <stop offset="0.72" stop-color="#0bbf67"/>
      <stop offset="1" stop-color="#06351f"/>
    </radialGradient>
    <linearGradient id="bg3" x1="0" y1="0" x2="0" y2="1">
      <stop offset="0" stop-color="#161a18"/>
      <stop offset="1" stop-color="#101312"/>
    </linearGradient>
  </defs>

  <rect x="0" y="0" width="1270" height="760" fill="url(#bg3)"/>
  <rect x="0.5" y="0.5" width="1269" height="759" fill="none" stroke="#2c302c"/>

  <!-- wordmark -->
  <g transform="translate(64,52) scale(0.42)">
    <path d="M9 49c9-15 22-23 39-23s30 8 39 23c-9 14-22 21-39 21S18 63 9 49Z" fill="#06130d" stroke="#39ff9a" stroke-width="3"/>
    <circle cx="48" cy="48" r="16" fill="url(#iris)"/>
    <circle cx="48" cy="48" r="6" fill="#020405"/>
    <path d="M24 47c7-7 15-10 24-10s17 3 24 10" stroke="#eafff4" stroke-width="2" stroke-linecap="round" opacity=".72"/>
  </g>
  <text x="118" y="82" font-size="26" font-weight="700" letter-spacing="3" fill="#edefe9">KAGE</text>
  <rect x="1046" y="56" width="160" height="34" rx="17" fill="none" stroke="#2c302c"/>
  <text x="1126" y="78" text-anchor="middle" font-size="14" letter-spacing="0.5" fill="#a4aba1">HOW IT WORKS</text>

  <!-- headline -->
  <text x="64" y="232" font-family="Georgia, 'Times New Roman', serif" font-size="56" font-weight="700" fill="#edefe9">Ambient memory, end to end</text>
  <text x="64" y="282" font-size="21" fill="#a4aba1">Once installed it just runs — your agents capture, verify, recall, and stay honest as the code moves.</text>

  <!-- step panels -->
  <!-- 1 Capture -->
  <g>
    <rect x="64" y="350" width="267" height="250" rx="16" fill="#1a1d1b" stroke="#2c302c"/>
    <rect x="64" y="350" width="267" height="4" rx="2" fill="#43c98a"/>
    <text x="92" y="410" font-family="Georgia, serif" font-size="40" font-weight="700" fill="#43c98a">1</text>
    <text x="92" y="452" font-size="22" font-weight="700" fill="#edefe9">Capture</text>
    <text x="92" y="492" font-size="15" fill="#a4aba1">As your agent works,</text>
    <text x="92" y="514" font-size="15" fill="#a4aba1">durable learnings become</text>
    <text x="92" y="536" font-size="15" fill="#a4aba1">memory packets — plain</text>
    <text x="92" y="558" font-size="15" fill="#a4aba1">JSON in your repo.</text>
  </g>
  <!-- 2 Verify -->
  <g>
    <rect x="355" y="350" width="267" height="250" rx="16" fill="#1a1d1b" stroke="#2c302c"/>
    <rect x="355" y="350" width="267" height="4" rx="2" fill="#6fb4e8"/>
    <text x="383" y="410" font-family="Georgia, serif" font-size="40" font-weight="700" fill="#6fb4e8">2</text>
    <text x="383" y="452" font-size="22" font-weight="700" fill="#edefe9">Verify</text>
    <text x="383" y="492" font-size="15" fill="#a4aba1">Every packet must cite real</text>
    <text x="383" y="514" font-size="15" fill="#a4aba1">code. Hallucinated citations</text>
    <text x="383" y="536" font-size="15" fill="#a4aba1">are rejected on write —</text>
    <text x="383" y="558" font-size="15" fill="#a4aba1">they never enter storage.</text>
  </g>
  <!-- 3 Recall -->
  <g>
    <rect x="646" y="350" width="267" height="250" rx="16" fill="#1a1d1b" stroke="#2c302c"/>
    <rect x="646" y="350" width="267" height="4" rx="2" fill="#b095e8"/>
    <text x="674" y="410" font-family="Georgia, serif" font-size="40" font-weight="700" fill="#b095e8">3</text>
    <text x="674" y="452" font-size="22" font-weight="700" fill="#edefe9">Recall</text>
    <text x="674" y="492" font-size="15" fill="#a4aba1">The next session — yours or</text>
    <text x="674" y="514" font-size="15" fill="#a4aba1">a teammate's — starts</text>
    <text x="674" y="536" font-size="15" fill="#a4aba1">already knowing it, shared</text>
    <text x="674" y="558" font-size="15" fill="#a4aba1">through git.</text>
  </g>
  <!-- 4 Stay true -->
  <g>
    <rect x="937" y="350" width="269" height="250" rx="16" fill="#1a1d1b" stroke="#2c302c"/>
    <rect x="937" y="350" width="269" height="4" rx="2" fill="#d9a93f"/>
    <text x="965" y="410" font-family="Georgia, serif" font-size="40" font-weight="700" fill="#d9a93f">4</text>
    <text x="965" y="452" font-size="22" font-weight="700" fill="#edefe9">Stay true</text>
    <text x="965" y="492" font-size="15" fill="#a4aba1">When a diff changes cited</text>
    <text x="965" y="514" font-size="15" fill="#a4aba1">code, that memory is</text>
    <text x="965" y="536" font-size="15" fill="#a4aba1">withheld and flagged —</text>
    <text x="965" y="558" font-size="15" fill="#a4aba1">before the PR.</text>
  </g>

  <!-- connectors -->
  <g fill="#767d74">
    <text x="343" y="482" text-anchor="middle" font-size="22">›</text>
    <text x="634" y="482" text-anchor="middle" font-size="22">›</text>
    <text x="925" y="482" text-anchor="middle" font-size="22">›</text>
  </g>

  <!-- footer -->
  <line x1="64" y1="676" x2="1206" y2="676" stroke="#2c302c"/>
  <text x="64" y="712" font-size="16" font-weight="600" fill="#43c98a">kage-core.com</text>
  <text x="1206" y="712" text-anchor="end" font-size="16" fill="#767d74">npx -y @kage-core/kage-graph-mcp install</text>
</svg>
